<svg version="1.1" xmlns="http://www.w3.org/2000/svg" xmlns:xlink="http://www.w3.org/1999/xlink" style="" xml:space="preserve" width="512" height="512"><rect id="backgroundrect" width="100%" height="100%" x="0" y="0" fill="none" stroke="none"/>
















<g class="currentLayer" style=""><title>Layer 1</title><g id="svg_1" class="selected" fill-opacity="1" fill="#319447">
	<g id="svg_2" fill="#319447">
		<path d="M419.843,120.459c-10.55-9.673-24.6-15.589-40.007-15.589h-65.098c-42.623,0-71.464,43.98-54.246,83.062H90.631    c-0.04,0-0.078,0.006-0.117,0.006C40.594,188.003,0,228.632,0,278.567v110.841c0,9.788,7.935,17.723,17.723,17.723h72.908    c9.788,0,17.723-7.935,17.723-17.723v-31.937h295.29v31.937c0,9.788,7.935,17.723,17.723,17.723h72.909    c9.788,0,17.723-7.935,17.723-17.723v-230.36C512,111.07,453.929,86.907,419.843,120.459z M403.645,322.025h-295.29v-23.135    h295.29V322.025z M379.893,187.932h-65.212c-13.102-0.031-23.751-10.698-23.751-23.807c0-13.128,10.68-23.809,23.809-23.809    h65.097c13.128,0,23.809,10.681,23.809,23.809C403.646,177.235,392.995,187.901,379.893,187.932z" id="svg_3" fill="#319447"/>
	</g>
</g><g id="svg_4">
</g><g id="svg_5">
</g><g id="svg_6">
</g><g id="svg_7">
</g><g id="svg_8">
</g><g id="svg_9">
</g><g id="svg_10">
</g><g id="svg_11">
</g><g id="svg_12">
</g><g id="svg_13">
</g><g id="svg_14">
</g><g id="svg_15">
</g><g id="svg_16">
</g><g id="svg_17">
</g><g id="svg_18">
</g></g></svg>