<svg id="svg" version="1.1" xmlns="http://www.w3.org/2000/svg" xmlns:xlink="http://www.w3.org/1999/xlink" width="400" height="360.4761904761905" viewBox="0, 0, 400,360.4761904761905"><g id="svgg"><path id="path0" d="M60.803 15.539 C 57.643 17.290,55.156 20.288,54.545 23.084 C 54.437 23.580,54.284 45.532,54.205 71.867 L 54.061 119.748 59.993 119.748 L 65.925 119.748 66.127 118.575 C 66.239 117.931,66.437 116.632,66.569 115.690 C 66.701 114.748,66.918 113.977,67.051 113.977 C 67.184 113.977,67.302 113.693,67.313 113.345 C 67.358 111.827,68.348 106.922,68.651 106.713 C 68.835 106.586,68.912 105.986,68.823 105.379 C 68.734 104.772,68.772 104.345,68.907 104.428 C 69.042 104.512,69.244 103.574,69.356 102.344 C 69.467 101.114,69.733 100.050,69.946 99.979 C 70.159 99.908,70.334 99.691,70.334 99.498 C 70.334 99.304,70.131 99.268,69.883 99.417 C 69.528 99.630,69.524 99.573,69.866 99.151 C 70.105 98.856,70.300 98.297,70.301 97.909 C 70.301 97.522,70.484 96.291,70.707 95.175 L 71.111 93.145 73.127 92.740 C 74.236 92.518,75.522 92.335,75.984 92.335 C 76.447 92.335,76.826 92.203,76.826 92.041 C 76.826 91.766,81.201 90.905,82.761 90.873 C 83.148 90.865,83.635 90.719,83.843 90.549 C 84.050 90.378,85.113 90.136,86.204 90.011 C 87.295 89.886,88.674 89.677,89.270 89.548 C 89.865 89.419,90.581 89.358,90.862 89.411 C 91.142 89.465,91.710 89.348,92.124 89.152 C 92.904 88.782,99.564 87.884,101.623 87.870 C 102.268 87.866,102.795 87.733,102.795 87.574 C 102.795 87.416,102.917 87.318,103.066 87.356 C 103.352 87.431,109.311 87.038,113.255 86.684 C 114.545 86.568,116.858 86.458,118.395 86.440 C 119.932 86.421,121.190 86.288,121.190 86.145 C 121.190 86.001,125.897 85.870,131.650 85.854 C 137.403 85.838,142.110 85.957,142.110 86.120 C 142.110 86.282,143.530 86.443,145.266 86.477 C 147.002 86.510,149.315 86.622,150.406 86.725 C 151.497 86.828,154.092 87.011,156.173 87.133 C 158.254 87.254,160.202 87.472,160.501 87.618 C 160.801 87.764,161.776 87.929,162.669 87.985 C 163.562 88.042,164.860 88.153,165.555 88.233 C 166.249 88.313,167.990 88.478,169.424 88.601 C 170.858 88.723,171.940 88.970,171.829 89.149 C 171.718 89.329,172.168 89.448,172.829 89.413 C 174.109 89.345,178.358 90.072,179.261 90.514 C 179.558 90.659,180.207 90.743,180.703 90.700 C 181.199 90.657,181.770 90.753,181.972 90.912 C 182.174 91.072,183.213 91.302,184.280 91.424 C 185.348 91.546,186.538 91.816,186.926 92.023 C 187.313 92.231,187.938 92.320,188.314 92.221 C 188.691 92.123,189.083 92.180,189.187 92.348 C 189.291 92.517,190.101 92.763,190.987 92.896 L 192.597 93.137 192.692 106.352 L 192.786 119.567 200.541 119.567 L 208.296 119.567 208.476 106.522 C 208.575 99.347,208.738 93.416,208.837 93.342 C 209.127 93.125,212.567 92.236,213.229 92.207 C 213.561 92.193,213.755 92.053,213.658 91.897 C 213.562 91.742,213.939 91.608,214.496 91.600 C 215.939 91.581,218.300 91.220,218.936 90.922 C 219.234 90.782,219.912 90.685,220.445 90.706 C 220.977 90.728,221.332 90.616,221.235 90.458 C 221.137 90.300,221.270 90.170,221.530 90.168 C 221.789 90.167,223.463 89.991,225.248 89.778 C 227.033 89.565,228.856 89.384,229.299 89.375 C 229.742 89.367,230.034 89.246,229.948 89.107 C 229.805 88.875,237.319 87.910,239.560 87.873 C 240.092 87.864,240.447 87.728,240.350 87.571 C 240.253 87.414,241.117 87.273,242.269 87.258 C 243.421 87.243,244.608 87.185,244.905 87.128 C 245.836 86.953,255.125 86.465,256.357 86.528 C 257.002 86.560,257.529 86.447,257.529 86.275 C 257.529 86.104,257.773 85.963,258.070 85.963 C 258.368 85.963,258.611 86.099,258.611 86.264 C 258.611 86.429,258.783 86.564,258.993 86.564 C 259.203 86.564,259.275 86.402,259.152 86.204 C 259.030 86.005,259.101 85.843,259.311 85.843 C 259.522 85.843,259.693 86.011,259.693 86.216 C 259.693 86.474,259.910 86.474,260.391 86.216 C 261.318 85.720,278.323 85.708,278.629 86.204 C 278.752 86.402,279.177 86.564,279.574 86.564 C 279.970 86.564,280.195 86.403,280.073 86.205 C 279.926 85.968,280.175 85.969,280.805 86.208 C 281.330 86.408,282.191 86.546,282.719 86.515 C 283.616 86.463,292.546 86.929,294.139 87.111 C 294.536 87.157,295.722 87.214,296.775 87.240 C 297.828 87.265,298.604 87.425,298.499 87.595 C 298.394 87.764,299.075 87.900,300.011 87.895 C 300.947 87.891,302.038 87.983,302.435 88.101 C 302.831 88.219,304.454 88.423,306.041 88.555 C 307.628 88.687,309.128 88.960,309.374 89.163 C 309.624 89.369,310.379 89.427,311.087 89.294 C 311.811 89.158,312.353 89.203,312.353 89.398 C 312.353 89.586,313.368 89.855,314.608 89.996 C 315.848 90.137,317.055 90.408,317.291 90.599 C 317.528 90.789,318.014 90.902,318.373 90.850 C 318.732 90.797,319.351 90.857,319.748 90.983 C 320.144 91.109,321.106 91.306,321.884 91.421 C 322.663 91.536,323.474 91.767,323.688 91.934 C 323.901 92.101,324.319 92.247,324.617 92.258 C 324.914 92.270,326.172 92.483,327.412 92.732 C 329.623 93.175,329.871 93.398,329.693 94.770 C 329.661 95.018,329.780 95.221,329.958 95.221 C 330.278 95.221,331.182 99.432,331.156 100.800 C 331.148 101.191,331.278 101.597,331.444 101.702 C 331.610 101.807,331.841 102.543,331.958 103.336 C 332.075 104.130,332.272 105.185,332.395 105.681 C 332.519 106.177,332.601 107.041,332.578 107.600 C 332.555 108.160,332.680 108.530,332.855 108.421 C 333.031 108.313,333.270 109.072,333.388 110.108 C 333.505 111.145,333.704 112.399,333.830 112.894 C 333.956 113.390,334.093 114.043,334.134 114.344 C 334.175 114.645,334.305 115.050,334.421 115.245 C 334.538 115.440,334.746 116.435,334.884 117.457 C 335.182 119.665,334.898 119.565,341.304 119.700 L 345.907 119.798 345.892 73.965 C 345.883 48.758,345.759 28.133,345.616 28.133 C 345.473 28.133,345.340 27.281,345.319 26.240 C 345.213 20.803,344.461 19.195,340.667 16.290 C 340.111 15.864,338.973 15.458,337.782 15.258 C 337.187 15.159,336.619 14.955,336.519 14.806 C 336.241 14.386,332.273 14.363,332.016 14.780 C 331.891 14.983,331.399 15.149,330.924 15.149 C 329.777 15.149,328.156 15.887,327.572 16.676 C 327.313 17.026,326.949 17.313,326.763 17.313 C 326.240 17.313,324.617 18.833,324.617 19.323 C 324.617 19.564,324.380 19.851,324.090 19.962 C 323.777 20.083,323.466 20.901,323.323 21.985 C 323.190 22.986,322.899 23.808,322.677 23.811 C 322.454 23.814,322.516 23.974,322.813 24.166 C 323.111 24.358,323.183 24.518,322.974 24.521 C 322.732 24.525,322.588 26.027,322.576 28.682 C 322.566 30.968,322.453 32.943,322.325 33.071 C 322.197 33.199,322.092 34.088,322.092 35.047 L 322.092 36.790 200.000 36.790 L 77.908 36.790 77.908 35.167 C 77.908 34.274,77.746 33.544,77.547 33.544 C 77.349 33.544,77.187 33.372,77.187 33.162 C 77.187 32.952,77.374 32.896,77.603 33.037 C 77.865 33.199,77.921 33.136,77.755 32.867 C 77.610 32.631,77.482 30.861,77.473 28.933 C 77.463 27.006,77.315 25.157,77.143 24.826 C 76.939 24.432,76.986 24.162,77.280 24.043 C 77.635 23.900,77.634 23.856,77.277 23.834 C 77.025 23.818,76.826 23.337,76.826 22.744 C 76.826 22.161,76.664 21.583,76.465 21.461 C 76.267 21.338,76.105 20.940,76.105 20.576 C 76.105 20.213,75.838 19.813,75.512 19.687 C 75.186 19.562,75.011 19.368,75.123 19.256 C 75.388 18.991,73.444 16.952,72.927 16.952 C 72.711 16.952,72.404 16.737,72.245 16.474 C 71.049 14.491,63.768 13.897,60.803 15.539 M55.054 126.872 C 54.418 126.961,53.951 127.282,53.840 127.706 C 53.741 128.086,53.512 128.304,53.331 128.193 C 53.151 128.081,53.036 128.123,53.076 128.287 C 53.231 128.923,52.249 131.650,51.865 131.650 C 51.641 131.650,51.560 131.753,51.686 131.878 C 51.811 132.003,51.764 132.384,51.582 132.724 C 51.401 133.064,51.169 133.800,51.067 134.360 C 50.965 134.921,50.748 135.473,50.584 135.588 C 50.420 135.704,50.061 136.528,49.786 137.421 C 49.512 138.314,49.113 139.369,48.901 139.766 C 48.689 140.162,48.499 140.649,48.479 140.848 C 48.437 141.259,48.188 141.948,47.215 144.341 C 46.838 145.270,46.528 146.285,46.528 146.595 C 46.528 146.906,46.371 147.160,46.179 147.160 C 45.987 147.160,45.923 147.403,46.037 147.701 C 46.151 147.998,46.083 148.242,45.885 148.242 C 45.687 148.242,45.418 148.688,45.288 149.234 C 44.980 150.526,43.696 153.923,43.037 155.186 C 42.752 155.732,42.619 156.340,42.742 156.538 C 42.864 156.736,42.810 156.898,42.622 156.898 C 42.434 156.898,42.174 157.466,42.044 158.161 C 41.913 158.855,41.652 159.423,41.462 159.423 C 41.273 159.423,41.118 159.794,41.118 160.248 C 41.118 160.702,40.809 161.681,40.430 162.423 C 40.052 163.165,39.547 164.588,39.307 165.585 C 39.068 166.581,38.776 167.301,38.659 167.183 C 38.541 167.065,38.167 167.909,37.827 169.057 C 37.487 170.206,36.858 172.119,36.430 173.309 C 36.001 174.500,35.604 175.636,35.548 175.834 C 35.154 177.220,34.500 178.539,34.206 178.539 C 34.013 178.539,33.959 178.864,34.085 179.261 C 34.221 179.691,34.150 179.982,33.907 179.982 C 33.684 179.982,33.585 180.118,33.688 180.285 C 33.791 180.451,33.557 181.181,33.168 181.907 C 32.779 182.633,32.487 183.349,32.520 183.498 C 32.578 183.766,32.151 184.905,31.205 187.010 C 30.936 187.608,30.610 188.503,30.480 188.999 C 30.351 189.495,29.864 190.875,29.399 192.065 C 28.385 194.658,28.028 195.611,27.979 195.852 C 27.959 195.951,27.842 196.195,27.719 196.393 C 27.597 196.592,27.384 197.281,27.245 197.926 C 27.107 198.571,26.827 199.098,26.623 199.098 C 26.420 199.098,26.337 199.317,26.439 199.583 C 26.541 199.850,26.289 200.784,25.879 201.657 C 25.468 202.531,25.161 203.374,25.195 203.531 C 25.230 203.688,25.058 204.175,24.815 204.613 C 24.571 205.052,24.366 205.497,24.359 205.602 C 24.344 205.829,23.300 208.376,22.328 210.560 C 21.950 211.408,21.641 212.250,21.641 212.430 C 21.641 212.610,21.454 213.214,21.225 213.773 C 20.997 214.331,20.751 215.093,20.680 215.465 C 20.608 215.837,20.326 216.649,20.052 217.268 C 19.615 218.257,19.124 219.468,18.937 220.018 C 18.903 220.117,18.686 220.655,18.455 221.214 C 18.224 221.772,18.034 222.462,18.034 222.747 C 18.034 223.031,17.887 223.264,17.707 223.264 C 17.528 223.264,17.465 223.589,17.569 223.986 C 17.675 224.389,17.580 224.707,17.355 224.707 C 17.133 224.707,16.952 224.945,16.952 225.236 C 16.952 225.527,16.686 226.379,16.361 227.129 C 16.036 227.880,15.651 228.819,15.504 229.216 C 15.358 229.612,15.081 230.343,14.888 230.839 C 14.695 231.335,14.607 231.943,14.693 232.191 C 14.946 232.925,385.056 232.846,385.338 232.113 C 385.450 231.821,385.386 231.487,385.196 231.370 C 385.006 231.253,384.851 230.836,384.851 230.445 C 384.851 230.053,384.445 228.932,383.950 227.953 C 383.454 226.974,383.048 225.844,383.048 225.440 C 383.048 225.037,382.875 224.707,382.663 224.707 C 382.442 224.707,382.375 224.399,382.507 223.986 C 382.633 223.589,382.595 223.264,382.423 223.264 C 382.033 223.264,381.244 221.136,381.244 220.083 C 381.244 219.650,381.108 219.297,380.941 219.297 C 380.667 219.297,379.840 217.104,379.571 215.664 C 379.513 215.353,379.217 214.622,378.914 214.041 C 378.611 213.460,378.362 212.701,378.361 212.353 C 378.360 212.006,378.229 211.722,378.070 211.722 C 377.911 211.722,377.479 210.667,377.110 209.378 C 376.741 208.088,376.329 207.033,376.194 207.033 C 375.915 207.033,374.940 204.132,375.060 203.659 C 375.103 203.489,374.991 203.165,374.812 202.938 C 374.411 202.430,373.494 199.741,373.596 199.369 C 373.637 199.220,373.527 199.098,373.352 199.098 C 373.177 199.098,372.850 198.368,372.626 197.475 C 372.401 196.583,372.016 195.850,371.771 195.847 C 371.481 195.843,371.514 195.719,371.867 195.491 C 372.216 195.266,372.250 195.140,371.964 195.136 C 371.719 195.133,371.413 194.684,371.283 194.139 C 371.153 193.593,370.846 192.741,370.600 192.245 C 370.355 191.749,369.866 190.451,369.514 189.360 C 369.162 188.269,368.741 187.203,368.577 186.991 C 368.414 186.779,368.100 185.764,367.879 184.736 C 367.659 183.708,367.365 182.867,367.226 182.867 C 367.088 182.867,366.753 182.096,366.483 181.154 C 366.212 180.212,365.871 179.279,365.724 179.080 C 365.577 178.882,365.346 178.199,365.210 177.563 C 365.074 176.927,364.650 175.758,364.267 174.965 C 363.884 174.173,363.571 173.273,363.571 172.966 C 363.571 172.659,363.414 172.408,363.221 172.408 C 363.029 172.408,362.972 172.148,363.094 171.830 C 363.216 171.513,363.168 171.147,362.989 171.019 C 362.809 170.890,362.287 169.811,361.829 168.620 C 361.371 167.430,360.834 166.156,360.635 165.790 C 360.437 165.423,360.355 165.044,360.452 164.946 C 360.550 164.848,360.237 164.028,359.756 163.124 C 359.275 162.219,358.882 161.198,358.882 160.853 C 358.882 160.509,358.639 159.762,358.343 159.194 C 358.047 158.625,357.803 157.876,357.802 157.529 C 357.801 157.182,357.628 156.898,357.418 156.898 C 357.208 156.898,357.141 156.729,357.269 156.522 C 357.397 156.314,357.256 155.770,356.955 155.312 C 356.655 154.854,356.299 153.887,356.163 153.164 C 356.027 152.440,355.788 151.849,355.632 151.849 C 355.475 151.849,355.148 150.996,354.904 149.955 C 354.661 148.913,354.257 147.818,354.007 147.520 C 353.757 147.223,353.440 146.452,353.303 145.807 C 353.166 145.162,352.895 144.635,352.700 144.635 C 352.506 144.635,352.432 144.497,352.537 144.327 C 352.641 144.158,352.413 143.404,352.029 142.651 C 351.645 141.898,351.423 141.133,351.535 140.952 C 351.647 140.770,351.503 140.348,351.214 140.013 C 350.925 139.679,350.468 138.634,350.198 137.692 C 349.928 136.749,349.580 135.978,349.425 135.978 C 349.270 135.978,349.142 135.613,349.141 135.167 C 349.140 134.720,348.923 133.941,348.659 133.435 C 348.394 132.929,348.219 132.239,348.268 131.902 C 348.318 131.565,348.229 131.289,348.072 131.289 C 347.915 131.289,347.602 130.559,347.378 129.666 C 347.153 128.774,346.809 128.043,346.613 128.043 C 346.418 128.043,346.258 127.800,346.258 127.502 C 346.258 127.064,345.622 126.951,342.922 126.905 C 341.087 126.874,338.875 126.803,338.008 126.745 L 336.430 126.641 336.661 128.154 C 336.788 128.986,336.967 130.305,337.060 131.085 C 337.153 131.866,337.394 132.669,337.596 132.871 C 339.417 134.692,337.419 136.436,332.372 137.433 C 331.181 137.668,330.045 137.986,329.847 138.140 C 329.648 138.294,328.618 138.523,327.557 138.648 C 326.496 138.774,325.331 139.036,324.968 139.230 C 324.605 139.424,324.053 139.485,323.741 139.365 C 323.429 139.245,323.174 139.306,323.174 139.500 C 323.174 139.694,322.038 139.965,320.649 140.101 C 319.261 140.238,318.124 140.467,318.124 140.609 C 318.124 140.752,317.471 140.832,316.672 140.787 C 315.831 140.740,315.309 140.849,315.431 141.047 C 315.551 141.241,314.930 141.408,313.998 141.434 C 313.093 141.459,312.232 141.508,312.083 141.543 C 311.307 141.729,305.973 142.224,305.554 142.149 C 305.287 142.101,305.174 142.235,305.305 142.447 C 305.462 142.700,304.887 142.841,303.628 142.859 C 302.575 142.874,301.389 142.955,300.992 143.039 C 300.595 143.123,299.141 143.203,297.760 143.217 C 296.380 143.231,295.107 143.331,294.932 143.439 C 294.758 143.547,293.169 143.644,291.401 143.654 C 289.634 143.664,288.188 143.811,288.188 143.980 C 288.188 144.149,281.208 144.278,272.678 144.266 C 264.148 144.255,257.169 144.109,257.169 143.942 C 257.169 143.775,255.870 143.660,254.283 143.686 C 252.696 143.712,251.357 143.633,251.307 143.511 C 251.258 143.388,249.221 143.190,246.781 143.070 C 244.341 142.950,242.188 142.755,241.996 142.636 C 241.533 142.350,239.608 142.075,234.445 141.555 C 233.354 141.445,232.218 141.253,231.921 141.127 C 231.623 141.001,231.136 140.861,230.839 140.816 C 230.541 140.770,228.999 140.543,227.412 140.311 C 225.825 140.079,224.283 139.801,223.986 139.694 C 223.688 139.586,223.039 139.448,222.543 139.386 C 220.892 139.180,217.458 138.298,217.632 138.124 C 217.726 138.030,217.287 137.929,216.656 137.899 C 216.025 137.869,214.130 137.489,212.444 137.053 C 210.757 136.618,209.175 136.252,208.927 136.240 C 208.593 136.224,208.476 135.118,208.476 131.976 C 208.476 126.218,209.081 126.601,199.974 126.601 L 192.606 126.601 192.606 131.285 L 192.606 135.970 191.163 136.201 C 190.370 136.327,189.720 136.573,189.720 136.746 C 189.720 136.919,189.243 137.060,188.660 137.060 C 188.076 137.060,187.515 137.196,187.413 137.361 C 187.311 137.526,186.710 137.586,186.078 137.493 C 185.446 137.400,185.018 137.468,185.126 137.643 C 185.235 137.819,184.974 137.989,184.546 138.023 C 183.256 138.123,179.826 138.910,179.441 139.193 C 179.243 139.339,178.601 139.413,178.016 139.358 C 177.430 139.302,176.781 139.394,176.573 139.561 C 176.365 139.728,175.302 139.983,174.211 140.126 C 173.120 140.270,172.049 140.531,171.830 140.707 C 171.612 140.883,170.922 140.967,170.298 140.894 C 169.673 140.821,169.161 140.871,169.161 141.004 C 169.161 141.202,164.919 141.773,160.144 142.219 C 159.648 142.265,159.075 142.409,158.871 142.540 C 158.666 142.670,156.924 142.892,155.000 143.033 C 150.998 143.327,149.902 143.431,149.775 143.532 C 149.725 143.571,148.066 143.614,146.087 143.627 C 144.107 143.641,142.578 143.795,142.686 143.971 C 142.799 144.152,136.853 144.279,128.802 144.266 C 121.058 144.253,114.638 144.108,114.536 143.943 C 114.434 143.778,112.400 143.664,110.016 143.688 C 107.631 143.713,105.681 143.594,105.681 143.424 C 105.681 143.254,105.475 143.194,105.224 143.290 C 104.550 143.549,97.324 142.871,96.483 142.470 C 96.087 142.281,95.194 142.148,94.500 142.173 C 93.805 142.198,92.994 142.118,92.696 141.995 C 92.140 141.764,86.662 141.018,85.212 140.976 C 84.766 140.962,84.400 140.799,84.400 140.613 C 84.400 140.427,84.197 140.314,83.950 140.363 C 83.044 140.539,78.990 139.901,78.990 139.582 C 78.990 139.401,78.544 139.257,77.998 139.261 C 76.511 139.271,72.043 138.515,71.347 138.135 C 71.012 137.952,69.645 137.628,68.310 137.415 C 66.975 137.201,65.707 136.917,65.493 136.784 C 65.279 136.650,64.783 136.490,64.390 136.429 C 63.998 136.368,63.551 136.193,63.397 136.039 C 63.060 135.702,63.481 130.165,63.826 130.378 C 63.959 130.461,64.062 129.725,64.054 128.745 C 64.041 127.210,63.937 126.957,63.309 126.928 C 60.068 126.781,55.905 126.753,55.054 126.872 M51.061 240.177 C 50.950 240.357,44.843 240.491,37.212 240.481 C 29.704 240.470,23.373 240.579,23.142 240.721 C 22.909 240.866,22.723 240.779,22.723 240.526 C 22.723 240.173,22.627 240.168,22.290 240.505 C 22.052 240.743,21.200 240.940,20.397 240.943 C 18.611 240.949,17.261 241.283,17.495 241.662 C 17.590 241.816,17.258 242.046,16.757 242.172 C 15.795 242.413,15.149 243.602,15.149 245.130 C 15.149 245.660,14.995 245.935,14.775 245.799 C 14.546 245.658,14.394 246.035,14.384 246.769 C 14.196 260.231,14.107 311.208,14.271 311.614 C 14.395 311.921,14.497 313.189,14.497 314.432 C 14.497 315.914,14.733 317.178,15.183 318.111 C 15.561 318.893,15.871 319.662,15.873 319.820 C 15.877 320.319,18.224 321.731,19.048 321.731 C 19.483 321.731,19.838 321.856,19.838 322.009 C 19.838 322.162,21.412 322.330,23.336 322.382 C 27.555 322.495,26.988 321.654,27.203 328.122 C 27.418 334.567,27.475 334.912,28.872 338.142 C 29.130 338.738,29.301 339.444,29.254 339.712 C 29.206 339.979,29.340 340.092,29.552 339.961 C 29.764 339.830,29.937 339.981,29.937 340.297 C 29.937 340.612,30.179 340.963,30.476 341.077 C 30.772 341.191,30.925 341.429,30.815 341.607 C 30.705 341.784,30.841 341.930,31.117 341.930 C 31.393 341.930,31.831 342.328,32.092 342.814 C 32.352 343.301,32.664 343.689,32.784 343.677 C 33.315 343.624,34.626 344.207,34.626 344.497 C 34.626 344.672,34.748 344.789,34.896 344.757 C 35.180 344.696,36.946 345.331,37.872 345.826 C 38.704 346.272,43.015 346.340,42.745 345.903 C 42.609 345.683,42.998 345.537,43.722 345.537 C 44.384 345.537,45.265 345.299,45.679 345.008 C 46.094 344.718,46.536 344.582,46.661 344.708 C 46.787 344.833,46.889 344.746,46.889 344.515 C 46.889 344.283,47.119 344.094,47.401 344.094 C 48.619 344.094,52.581 339.746,52.883 338.077 C 52.978 337.556,53.188 336.870,53.350 336.554 C 53.512 336.237,53.566 335.757,53.469 335.486 C 53.373 335.215,53.468 334.885,53.682 334.753 C 54.136 334.472,54.414 331.335,54.443 326.150 L 54.463 322.453 200.000 322.453 L 345.537 322.453 345.554 325.969 C 345.563 327.904,345.654 330.379,345.755 331.470 C 345.856 332.561,345.924 333.981,345.906 334.626 C 345.889 335.271,346.011 335.798,346.178 335.798 C 346.345 335.798,346.690 336.610,346.945 337.602 C 347.199 338.594,347.542 339.322,347.708 339.220 C 347.874 339.117,348.120 339.401,348.256 339.850 C 348.538 340.786,351.967 344.094,352.654 344.094 C 352.905 344.094,353.111 344.221,353.111 344.376 C 353.111 344.531,353.882 344.879,354.824 345.150 C 355.766 345.420,356.732 345.793,356.969 345.978 C 357.449 346.352,360.661 346.281,361.226 345.884 C 361.425 345.745,362.228 345.515,363.012 345.373 C 363.796 345.232,364.612 344.877,364.825 344.585 C 365.039 344.293,365.453 344.006,365.745 343.948 C 367.322 343.634,368.767 342.453,369.673 340.736 C 369.954 340.203,370.267 339.849,370.368 339.950 C 370.592 340.174,371.493 337.662,371.500 336.790 C 371.503 336.443,371.658 336.159,371.844 336.159 C 372.030 336.159,372.193 335.875,372.206 335.528 C 372.220 335.180,372.380 333.598,372.564 332.011 C 372.747 330.424,372.909 327.624,372.923 325.789 L 372.949 322.453 375.203 322.407 C 376.443 322.382,378.066 322.349,378.810 322.333 C 379.554 322.317,380.162 322.176,380.162 322.018 C 380.162 321.860,380.536 321.731,380.992 321.731 C 381.448 321.731,382.016 321.537,382.254 321.298 C 382.492 321.060,382.687 320.979,382.687 321.118 C 382.687 321.257,382.986 321.087,383.351 320.739 C 383.717 320.392,383.950 319.986,383.871 319.838 C 383.792 319.689,383.891 319.567,384.092 319.567 C 384.293 319.567,384.570 318.959,384.707 318.215 C 384.843 317.471,385.135 316.746,385.354 316.605 C 386.022 316.174,385.870 245.627,385.201 245.627 C 385.009 245.627,384.849 245.261,384.846 244.815 C 384.840 244.044,384.147 242.537,384.135 243.272 C 384.132 243.465,383.877 243.262,383.568 242.821 C 383.260 242.381,382.773 242.020,382.486 242.020 C 382.200 242.020,381.966 241.848,381.966 241.638 C 381.966 241.428,381.803 241.356,381.605 241.479 C 381.407 241.601,381.244 241.544,381.244 241.351 C 381.244 240.810,376.403 240.458,368.260 240.405 C 364.193 240.379,360.151 240.234,359.278 240.084 C 358.117 239.884,357.609 239.938,357.390 240.284 C 357.172 240.627,357.088 240.637,357.084 240.318 C 357.077 239.766,54.251 239.684,53.910 240.237 C 53.794 240.424,53.100 240.554,52.368 240.526 L 51.037 240.475 52.480 240.216 L 53.922 239.958 52.591 239.907 C 51.859 239.879,51.170 240.000,51.061 240.177 " stroke="none" fill="#dca404" fill-rule="evenodd"></path><path id="path1" d="M344.887 22.182 C 344.887 22.579,345.017 23.309,345.176 23.805 C 345.404 24.519,345.465 24.557,345.465 23.986 C 345.465 23.589,345.335 22.858,345.176 22.362 C 344.947 21.648,344.887 21.611,344.887 22.182 M77.286 32.822 C 77.256 33.219,77.349 33.544,77.493 33.544 C 77.637 33.544,77.779 33.219,77.809 32.822 C 77.839 32.426,77.746 32.101,77.602 32.101 C 77.458 32.101,77.316 32.426,77.286 32.822 M121.190 86.281 C 121.190 86.679,122.186 86.636,122.439 86.226 C 122.554 86.039,122.320 85.911,121.919 85.942 C 121.518 85.972,121.190 86.124,121.190 86.281 M141.028 86.204 C 141.727 86.656,142.110 86.656,142.110 86.204 C 142.110 86.005,141.745 85.846,141.298 85.849 C 140.642 85.853,140.590 85.921,141.028 86.204 M334.235 116.352 C 334.353 117.129,334.585 117.912,334.750 118.093 C 334.915 118.275,334.954 117.788,334.836 117.011 C 334.718 116.235,334.487 115.451,334.321 115.270 C 334.156 115.089,334.117 115.576,334.235 116.352 M63.966 128.279 C 63.927 128.964,64.002 129.092,64.231 128.730 C 64.624 128.109,64.659 127.322,64.292 127.322 C 64.143 127.322,63.997 127.753,63.966 128.279 M221.461 139.225 C 221.758 139.417,222.326 139.565,222.723 139.554 L 223.445 139.535 222.723 139.225 C 221.645 138.761,220.744 138.761,221.461 139.225 M86.204 141.028 C 86.903 141.480,87.286 141.480,87.286 141.028 C 87.286 140.830,86.921 140.670,86.474 140.673 C 85.818 140.677,85.766 140.745,86.204 141.028 M114.203 143.839 C 114.106 143.996,114.337 144.148,114.716 144.176 C 115.095 144.205,115.499 144.076,115.614 143.890 C 115.729 143.705,115.498 143.553,115.101 143.553 C 114.704 143.553,114.300 143.681,114.203 143.839 M257.169 143.859 C 257.169 144.027,257.658 144.178,258.257 144.195 C 258.856 144.212,259.252 144.075,259.138 143.889 C 258.878 143.469,257.169 143.442,257.169 143.859 M287.106 143.913 C 287.106 144.112,287.349 144.274,287.647 144.274 C 287.944 144.274,288.188 144.112,288.188 143.913 C 288.188 143.715,287.944 143.553,287.647 143.553 C 287.349 143.553,287.106 143.715,287.106 143.913 M163.210 233.003 C 163.356 233.239,176.011 233.363,200.000 233.363 C 223.989 233.363,236.644 233.239,236.790 233.003 C 236.938 232.763,224.583 232.642,200.000 232.642 C 175.417 232.642,163.062 232.763,163.210 233.003 M47.612 240.107 C 47.615 240.416,53.551 240.520,53.852 240.216 C 53.950 240.117,52.586 239.987,50.821 239.926 C 49.055 239.866,47.611 239.947,47.612 240.107 M55.095 240.110 C 55.541 240.196,56.271 240.196,56.718 240.110 C 57.164 240.024,56.799 239.954,55.906 239.954 C 55.014 239.954,54.648 240.024,55.095 240.110 M76.921 240.115 C 77.469 240.197,78.281 240.195,78.725 240.110 C 79.168 240.024,78.720 239.956,77.728 239.959 C 76.736 239.962,76.373 240.032,76.921 240.115 M81.777 240.116 C 82.418 240.196,83.554 240.197,84.302 240.119 C 85.050 240.041,84.527 239.976,83.138 239.974 C 81.749 239.972,81.137 240.036,81.777 240.116 M343.468 240.115 C 344.016 240.197,344.827 240.195,345.271 240.110 C 345.715 240.024,345.266 239.956,344.274 239.959 C 343.282 239.962,342.919 240.032,343.468 240.115 M347.971 240.117 C 348.616 240.197,349.671 240.197,350.316 240.117 C 350.960 240.037,350.433 239.971,349.143 239.971 C 347.854 239.971,347.326 240.037,347.971 240.117 M21.100 240.577 C 20.977 240.775,21.121 240.938,21.418 240.938 C 21.716 240.938,22.060 240.775,22.182 240.577 C 22.305 240.379,22.162 240.216,21.864 240.216 C 21.566 240.216,21.223 240.379,21.100 240.577 M33.093 240.486 C 35.721 240.548,40.023 240.548,42.651 240.486 C 45.280 240.424,43.129 240.374,37.872 240.374 C 32.615 240.374,30.464 240.424,33.093 240.486 M364.382 240.485 C 365.920 240.552,368.436 240.552,369.973 240.485 C 371.510 240.417,370.252 240.362,367.178 240.362 C 364.103 240.362,362.845 240.417,364.382 240.485 M376.105 240.471 C 376.551 240.557,377.281 240.557,377.728 240.471 C 378.174 240.385,377.809 240.315,376.916 240.315 C 376.023 240.315,375.658 240.385,376.105 240.471 " stroke="none" fill="#e0a404" fill-rule="evenodd"></path><path id="path2" d="M344.887 22.182 C 344.887 22.579,345.017 23.309,345.176 23.805 C 345.404 24.519,345.465 24.557,345.465 23.986 C 345.465 23.589,345.335 22.858,345.176 22.362 C 344.947 21.648,344.887 21.611,344.887 22.182 M77.286 32.822 C 77.256 33.219,77.349 33.544,77.493 33.544 C 77.637 33.544,77.779 33.219,77.809 32.822 C 77.839 32.426,77.746 32.101,77.602 32.101 C 77.458 32.101,77.316 32.426,77.286 32.822 M121.190 86.281 C 121.190 86.679,122.186 86.636,122.439 86.226 C 122.554 86.039,122.320 85.911,121.919 85.942 C 121.518 85.972,121.190 86.124,121.190 86.281 M141.028 86.204 C 141.727 86.656,142.110 86.656,142.110 86.204 C 142.110 86.005,141.745 85.846,141.298 85.849 C 140.642 85.853,140.590 85.921,141.028 86.204 M334.235 116.352 C 334.353 117.129,334.585 117.912,334.750 118.093 C 334.915 118.275,334.954 117.788,334.836 117.011 C 334.718 116.235,334.487 115.451,334.321 115.270 C 334.156 115.089,334.117 115.576,334.235 116.352 M63.966 128.279 C 63.927 128.964,64.002 129.092,64.231 128.730 C 64.624 128.109,64.659 127.322,64.292 127.322 C 64.143 127.322,63.997 127.753,63.966 128.279 M221.461 139.225 C 221.758 139.417,222.326 139.565,222.723 139.554 L 223.445 139.535 222.723 139.225 C 221.645 138.761,220.744 138.761,221.461 139.225 M86.204 141.028 C 86.903 141.480,87.286 141.480,87.286 141.028 C 87.286 140.830,86.921 140.670,86.474 140.673 C 85.818 140.677,85.766 140.745,86.204 141.028 M114.203 143.839 C 114.106 143.996,114.337 144.148,114.716 144.176 C 115.095 144.205,115.499 144.076,115.614 143.890 C 115.729 143.705,115.498 143.553,115.101 143.553 C 114.704 143.553,114.300 143.681,114.203 143.839 M257.169 143.859 C 257.169 144.027,257.658 144.178,258.257 144.195 C 258.856 144.212,259.252 144.075,259.138 143.889 C 258.878 143.469,257.169 143.442,257.169 143.859 M287.106 143.913 C 287.106 144.112,287.349 144.274,287.647 144.274 C 287.944 144.274,288.188 144.112,288.188 143.913 C 288.188 143.715,287.944 143.553,287.647 143.553 C 287.349 143.553,287.106 143.715,287.106 143.913 M163.210 233.003 C 163.356 233.239,176.011 233.363,200.000 233.363 C 223.989 233.363,236.644 233.239,236.790 233.003 C 236.938 232.763,224.583 232.642,200.000 232.642 C 175.417 232.642,163.062 232.763,163.210 233.003 M47.612 240.107 C 47.615 240.416,53.551 240.520,53.852 240.216 C 53.950 240.117,52.586 239.987,50.821 239.926 C 49.055 239.866,47.611 239.947,47.612 240.107 M55.095 240.110 C 55.541 240.196,56.271 240.196,56.718 240.110 C 57.164 240.024,56.799 239.954,55.906 239.954 C 55.014 239.954,54.648 240.024,55.095 240.110 M76.921 240.115 C 77.469 240.197,78.281 240.195,78.725 240.110 C 79.168 240.024,78.720 239.956,77.728 239.959 C 76.736 239.962,76.373 240.032,76.921 240.115 M81.777 240.116 C 82.418 240.196,83.554 240.197,84.302 240.119 C 85.050 240.041,84.527 239.976,83.138 239.974 C 81.749 239.972,81.137 240.036,81.777 240.116 M343.468 240.115 C 344.016 240.197,344.827 240.195,345.271 240.110 C 345.715 240.024,345.266 239.956,344.274 239.959 C 343.282 239.962,342.919 240.032,343.468 240.115 M347.971 240.117 C 348.616 240.197,349.671 240.197,350.316 240.117 C 350.960 240.037,350.433 239.971,349.143 239.971 C 347.854 239.971,347.326 240.037,347.971 240.117 M21.100 240.577 C 20.977 240.775,21.121 240.938,21.418 240.938 C 21.716 240.938,22.060 240.775,22.182 240.577 C 22.305 240.379,22.162 240.216,21.864 240.216 C 21.566 240.216,21.223 240.379,21.100 240.577 M33.093 240.486 C 35.721 240.548,40.023 240.548,42.651 240.486 C 45.280 240.424,43.129 240.374,37.872 240.374 C 32.615 240.374,30.464 240.424,33.093 240.486 M364.382 240.485 C 365.920 240.552,368.436 240.552,369.973 240.485 C 371.510 240.417,370.252 240.362,367.178 240.362 C 364.103 240.362,362.845 240.417,364.382 240.485 M376.105 240.471 C 376.551 240.557,377.281 240.557,377.728 240.471 C 378.174 240.385,377.809 240.315,376.916 240.315 C 376.023 240.315,375.658 240.385,376.105 240.471 " stroke="none" fill="#e0a404" fill-rule="evenodd"></path><path id="path3" d="M344.887 22.182 C 344.887 22.579,345.017 23.309,345.176 23.805 C 345.404 24.519,345.465 24.557,345.465 23.986 C 345.465 23.589,345.335 22.858,345.176 22.362 C 344.947 21.648,344.887 21.611,344.887 22.182 M77.286 32.822 C 77.256 33.219,77.349 33.544,77.493 33.544 C 77.637 33.544,77.779 33.219,77.809 32.822 C 77.839 32.426,77.746 32.101,77.602 32.101 C 77.458 32.101,77.316 32.426,77.286 32.822 M121.190 86.281 C 121.190 86.679,122.186 86.636,122.439 86.226 C 122.554 86.039,122.320 85.911,121.919 85.942 C 121.518 85.972,121.190 86.124,121.190 86.281 M141.028 86.204 C 141.727 86.656,142.110 86.656,142.110 86.204 C 142.110 86.005,141.745 85.846,141.298 85.849 C 140.642 85.853,140.590 85.921,141.028 86.204 M334.235 116.352 C 334.353 117.129,334.585 117.912,334.750 118.093 C 334.915 118.275,334.954 117.788,334.836 117.011 C 334.718 116.235,334.487 115.451,334.321 115.270 C 334.156 115.089,334.117 115.576,334.235 116.352 M63.966 128.279 C 63.927 128.964,64.002 129.092,64.231 128.730 C 64.624 128.109,64.659 127.322,64.292 127.322 C 64.143 127.322,63.997 127.753,63.966 128.279 M221.461 139.225 C 221.758 139.417,222.326 139.565,222.723 139.554 L 223.445 139.535 222.723 139.225 C 221.645 138.761,220.744 138.761,221.461 139.225 M86.204 141.028 C 86.903 141.480,87.286 141.480,87.286 141.028 C 87.286 140.830,86.921 140.670,86.474 140.673 C 85.818 140.677,85.766 140.745,86.204 141.028 M114.203 143.839 C 114.106 143.996,114.337 144.148,114.716 144.176 C 115.095 144.205,115.499 144.076,115.614 143.890 C 115.729 143.705,115.498 143.553,115.101 143.553 C 114.704 143.553,114.300 143.681,114.203 143.839 M257.169 143.859 C 257.169 144.027,257.658 144.178,258.257 144.195 C 258.856 144.212,259.252 144.075,259.138 143.889 C 258.878 143.469,257.169 143.442,257.169 143.859 M287.106 143.913 C 287.106 144.112,287.349 144.274,287.647 144.274 C 287.944 144.274,288.188 144.112,288.188 143.913 C 288.188 143.715,287.944 143.553,287.647 143.553 C 287.349 143.553,287.106 143.715,287.106 143.913 M163.210 233.003 C 163.356 233.239,176.011 233.363,200.000 233.363 C 223.989 233.363,236.644 233.239,236.790 233.003 C 236.938 232.763,224.583 232.642,200.000 232.642 C 175.417 232.642,163.062 232.763,163.210 233.003 M47.612 240.107 C 47.615 240.416,53.551 240.520,53.852 240.216 C 53.950 240.117,52.586 239.987,50.821 239.926 C 49.055 239.866,47.611 239.947,47.612 240.107 M55.095 240.110 C 55.541 240.196,56.271 240.196,56.718 240.110 C 57.164 240.024,56.799 239.954,55.906 239.954 C 55.014 239.954,54.648 240.024,55.095 240.110 M76.921 240.115 C 77.469 240.197,78.281 240.195,78.725 240.110 C 79.168 240.024,78.720 239.956,77.728 239.959 C 76.736 239.962,76.373 240.032,76.921 240.115 M81.777 240.116 C 82.418 240.196,83.554 240.197,84.302 240.119 C 85.050 240.041,84.527 239.976,83.138 239.974 C 81.749 239.972,81.137 240.036,81.777 240.116 M343.468 240.115 C 344.016 240.197,344.827 240.195,345.271 240.110 C 345.715 240.024,345.266 239.956,344.274 239.959 C 343.282 239.962,342.919 240.032,343.468 240.115 M347.971 240.117 C 348.616 240.197,349.671 240.197,350.316 240.117 C 350.960 240.037,350.433 239.971,349.143 239.971 C 347.854 239.971,347.326 240.037,347.971 240.117 M21.100 240.577 C 20.977 240.775,21.121 240.938,21.418 240.938 C 21.716 240.938,22.060 240.775,22.182 240.577 C 22.305 240.379,22.162 240.216,21.864 240.216 C 21.566 240.216,21.223 240.379,21.100 240.577 M33.093 240.486 C 35.721 240.548,40.023 240.548,42.651 240.486 C 45.280 240.424,43.129 240.374,37.872 240.374 C 32.615 240.374,30.464 240.424,33.093 240.486 M364.382 240.485 C 365.920 240.552,368.436 240.552,369.973 240.485 C 371.510 240.417,370.252 240.362,367.178 240.362 C 364.103 240.362,362.845 240.417,364.382 240.485 M376.105 240.471 C 376.551 240.557,377.281 240.557,377.728 240.471 C 378.174 240.385,377.809 240.315,376.916 240.315 C 376.023 240.315,375.658 240.385,376.105 240.471 " stroke="none" fill="#e0a404" fill-rule="evenodd"></path><path id="path4" d="M344.887 22.182 C 344.887 22.579,345.017 23.309,345.176 23.805 C 345.404 24.519,345.465 24.557,345.465 23.986 C 345.465 23.589,345.335 22.858,345.176 22.362 C 344.947 21.648,344.887 21.611,344.887 22.182 M77.286 32.822 C 77.256 33.219,77.349 33.544,77.493 33.544 C 77.637 33.544,77.779 33.219,77.809 32.822 C 77.839 32.426,77.746 32.101,77.602 32.101 C 77.458 32.101,77.316 32.426,77.286 32.822 M121.190 86.281 C 121.190 86.679,122.186 86.636,122.439 86.226 C 122.554 86.039,122.320 85.911,121.919 85.942 C 121.518 85.972,121.190 86.124,121.190 86.281 M141.028 86.204 C 141.727 86.656,142.110 86.656,142.110 86.204 C 142.110 86.005,141.745 85.846,141.298 85.849 C 140.642 85.853,140.590 85.921,141.028 86.204 M334.235 116.352 C 334.353 117.129,334.585 117.912,334.750 118.093 C 334.915 118.275,334.954 117.788,334.836 117.011 C 334.718 116.235,334.487 115.451,334.321 115.270 C 334.156 115.089,334.117 115.576,334.235 116.352 M63.966 128.279 C 63.927 128.964,64.002 129.092,64.231 128.730 C 64.624 128.109,64.659 127.322,64.292 127.322 C 64.143 127.322,63.997 127.753,63.966 128.279 M221.461 139.225 C 221.758 139.417,222.326 139.565,222.723 139.554 L 223.445 139.535 222.723 139.225 C 221.645 138.761,220.744 138.761,221.461 139.225 M86.204 141.028 C 86.903 141.480,87.286 141.480,87.286 141.028 C 87.286 140.830,86.921 140.670,86.474 140.673 C 85.818 140.677,85.766 140.745,86.204 141.028 M114.203 143.839 C 114.106 143.996,114.337 144.148,114.716 144.176 C 115.095 144.205,115.499 144.076,115.614 143.890 C 115.729 143.705,115.498 143.553,115.101 143.553 C 114.704 143.553,114.300 143.681,114.203 143.839 M257.169 143.859 C 257.169 144.027,257.658 144.178,258.257 144.195 C 258.856 144.212,259.252 144.075,259.138 143.889 C 258.878 143.469,257.169 143.442,257.169 143.859 M287.106 143.913 C 287.106 144.112,287.349 144.274,287.647 144.274 C 287.944 144.274,288.188 144.112,288.188 143.913 C 288.188 143.715,287.944 143.553,287.647 143.553 C 287.349 143.553,287.106 143.715,287.106 143.913 M163.210 233.003 C 163.356 233.239,176.011 233.363,200.000 233.363 C 223.989 233.363,236.644 233.239,236.790 233.003 C 236.938 232.763,224.583 232.642,200.000 232.642 C 175.417 232.642,163.062 232.763,163.210 233.003 M47.612 240.107 C 47.615 240.416,53.551 240.520,53.852 240.216 C 53.950 240.117,52.586 239.987,50.821 239.926 C 49.055 239.866,47.611 239.947,47.612 240.107 M55.095 240.110 C 55.541 240.196,56.271 240.196,56.718 240.110 C 57.164 240.024,56.799 239.954,55.906 239.954 C 55.014 239.954,54.648 240.024,55.095 240.110 M76.921 240.115 C 77.469 240.197,78.281 240.195,78.725 240.110 C 79.168 240.024,78.720 239.956,77.728 239.959 C 76.736 239.962,76.373 240.032,76.921 240.115 M81.777 240.116 C 82.418 240.196,83.554 240.197,84.302 240.119 C 85.050 240.041,84.527 239.976,83.138 239.974 C 81.749 239.972,81.137 240.036,81.777 240.116 M343.468 240.115 C 344.016 240.197,344.827 240.195,345.271 240.110 C 345.715 240.024,345.266 239.956,344.274 239.959 C 343.282 239.962,342.919 240.032,343.468 240.115 M347.971 240.117 C 348.616 240.197,349.671 240.197,350.316 240.117 C 350.960 240.037,350.433 239.971,349.143 239.971 C 347.854 239.971,347.326 240.037,347.971 240.117 M21.100 240.577 C 20.977 240.775,21.121 240.938,21.418 240.938 C 21.716 240.938,22.060 240.775,22.182 240.577 C 22.305 240.379,22.162 240.216,21.864 240.216 C 21.566 240.216,21.223 240.379,21.100 240.577 M33.093 240.486 C 35.721 240.548,40.023 240.548,42.651 240.486 C 45.280 240.424,43.129 240.374,37.872 240.374 C 32.615 240.374,30.464 240.424,33.093 240.486 M364.382 240.485 C 365.920 240.552,368.436 240.552,369.973 240.485 C 371.510 240.417,370.252 240.362,367.178 240.362 C 364.103 240.362,362.845 240.417,364.382 240.485 M376.105 240.471 C 376.551 240.557,377.281 240.557,377.728 240.471 C 378.174 240.385,377.809 240.315,376.916 240.315 C 376.023 240.315,375.658 240.385,376.105 240.471 " stroke="none" fill="#e0a404" fill-rule="evenodd"></path></g></svg>